<svg xmlns="http://www.w3.org/2000/svg" width="320" height="246" viewBox="0 0 320 246" fill="none"><mask id="mask0_261_1192" style="mask-type:luminance" maskUnits="userSpaceOnUse" x="0" y="0" width="320" height="246"><path d="M0 1.52588e-05H320V246H0V1.52588e-05Z" fill="white"></path></mask><g mask="url(#mask0_261_1192)"><path d="M140.936 174.011V173.241C141.261 173.187 141.518 173.115 141.707 173.026C141.897 172.937 142.038 172.81 142.13 172.647C142.223 172.483 142.281 172.276 142.304 172.023C142.327 171.77 142.339 171.458 142.339 171.084V159.461H141.4C140.936 159.461 140.581 159.515 140.334 159.624C140.086 159.734 139.872 159.904 139.69 160.137C139.509 160.37 139.353 160.683 139.221 161.075C139.09 161.468 138.982 161.839 138.896 162.189H137.309V158.097H150.951V162.189H149.363C149.216 161.661 149.1 161.272 149.015 161.023C148.93 160.775 148.836 160.563 148.731 160.388C148.627 160.213 148.517 160.067 148.401 159.951C148.285 159.834 148.161 159.741 148.03 159.671C147.899 159.601 147.735 159.549 147.538 159.514C147.34 159.478 147.084 159.461 146.767 159.461H145.932V171.084C145.932 171.496 145.944 171.809 145.967 172.023C145.99 172.237 146.033 172.41 146.094 172.541C146.156 172.674 146.232 172.781 146.321 172.862C146.409 172.944 146.533 173.018 146.691 173.084C146.849 173.15 147.064 173.203 147.335 173.241V174.011H140.936Z" fill="#A35429"></path><path d="M166.494 171.084C166.494 171.683 166.519 172.093 166.569 172.314C166.619 172.536 166.722 172.721 166.876 172.868C167.031 173.016 167.312 173.141 167.722 173.241V174.011H161.672V173.241C162.12 173.124 162.41 173.008 162.541 172.891C162.672 172.775 162.765 172.61 162.819 172.396C162.873 172.182 162.901 171.745 162.901 171.084V166.41H157.661V171.084C157.661 171.357 157.669 171.609 157.684 171.843C157.7 172.076 157.731 172.266 157.777 172.413C157.824 172.561 157.891 172.685 157.98 172.787C158.069 172.887 158.191 172.975 158.345 173.049C158.499 173.123 158.689 173.187 158.913 173.241V174.011H152.828V173.241C153.114 173.163 153.34 173.08 153.506 172.991C153.672 172.901 153.796 172.777 153.877 172.617C153.958 172.458 154.01 172.256 154.034 172.011C154.057 171.767 154.068 171.458 154.068 171.084V161.035C154.068 160.669 154.059 160.363 154.039 160.114C154.02 159.865 153.97 159.663 153.888 159.507C153.807 159.352 153.684 159.226 153.518 159.129C153.352 159.032 153.122 158.944 152.828 158.866V158.097H158.913V158.866C158.503 158.983 158.223 159.111 158.073 159.251C157.922 159.391 157.816 159.575 157.754 159.805C157.692 160.034 157.661 160.448 157.661 161.047V164.94H162.901V161.047C162.901 160.456 162.875 160.046 162.825 159.816C162.774 159.588 162.674 159.401 162.524 159.257C162.373 159.113 162.089 158.983 161.672 158.866V158.097H167.722V158.866C167.382 158.96 167.135 159.058 166.98 159.164C166.826 159.269 166.715 159.403 166.65 159.566C166.584 159.729 166.542 159.912 166.522 160.114C166.503 160.316 166.494 160.627 166.494 161.047V171.084Z" fill="#A35429"></path><path d="M181.459 158.097V161.804H179.871C179.616 161.066 179.4 160.567 179.222 160.306C179.044 160.046 178.832 159.84 178.584 159.688C178.337 159.536 177.916 159.461 177.321 159.461H174.794V165.057H176.324C176.664 165.057 176.93 165.008 177.124 164.911C177.317 164.814 177.478 164.653 177.605 164.428C177.733 164.202 177.854 163.852 177.97 163.378H179.28V168.111H177.97C177.862 167.661 177.742 167.317 177.611 167.08C177.48 166.843 177.323 166.673 177.142 166.573C176.96 166.472 176.687 166.421 176.324 166.421H174.794V172.647H177.31C177.58 172.647 177.808 172.629 177.993 172.594C178.179 172.559 178.344 172.499 178.491 172.413C178.638 172.328 178.78 172.211 178.915 172.063C179.05 171.916 179.17 171.757 179.274 171.586C179.378 171.415 179.489 171.189 179.605 170.91C179.721 170.63 179.848 170.245 179.987 169.756H181.575L181.355 174.011H169.961V173.241C170.247 173.163 170.473 173.08 170.639 172.991C170.805 172.901 170.929 172.777 171.01 172.617C171.091 172.458 171.143 172.256 171.166 172.011C171.189 171.767 171.201 171.458 171.201 171.084V161.035C171.201 160.669 171.192 160.363 171.172 160.114C171.153 159.865 171.103 159.663 171.021 159.507C170.94 159.352 170.817 159.226 170.65 159.129C170.484 159.032 170.255 158.944 169.961 158.866V158.097H181.459Z" fill="#A35429"></path><path d="M8.45849 190.374V201.717H10.4667C11.5482 201.717 12.441 201.572 13.1445 201.279C13.8471 200.987 14.4051 200.578 14.8175 200.055C15.2299 199.531 15.5139 198.915 15.6696 198.208C15.8249 197.501 15.9025 196.726 15.9025 195.882C15.9025 194.033 15.4698 192.645 14.6049 191.72C13.739 190.795 12.4546 190.333 10.7508 190.333C9.58765 190.333 8.8237 190.346 8.45849 190.374ZM10.6493 215.795H0V214.449C0.50062 214.312 0.895823 214.166 1.18693 214.01C1.4776 213.853 1.69417 213.636 1.83575 213.357C1.97778 213.078 2.06908 212.725 2.10966 212.296C2.15024 211.868 2.17053 211.327 2.17053 210.674V193.087C2.17053 192.448 2.15377 191.911 2.11981 191.475C2.08584 191.04 1.99807 190.687 1.85604 190.415C1.71402 190.143 1.49789 189.922 1.20722 189.751C0.916112 189.581 0.513852 189.429 0 189.292V187.946H11.8257C13.421 187.946 14.7769 188.058 15.8924 188.282C17.0083 188.507 17.9853 188.85 18.8238 189.313C19.5268 189.694 20.1218 190.173 20.6088 190.751C21.0953 191.33 21.4706 192.003 21.7344 192.771C21.9982 193.539 22.1301 194.434 22.1301 195.454C22.1301 196.787 21.8967 197.929 21.4301 198.882C20.9638 199.834 20.3349 200.626 19.5436 201.258C18.7527 201.891 17.6942 202.486 16.3696 203.044V203.247C17.37 203.683 18.1983 204.265 18.8542 204.992C19.5101 205.72 20.1015 206.642 20.6291 207.757L21.9069 210.531C22.4745 211.769 23.0391 212.697 23.6006 213.316C24.1616 213.935 24.8277 214.312 25.5982 214.449V215.795H17.789C17.0048 214.707 16.1191 213.089 15.132 210.939L13.5498 207.45C13.0765 206.417 12.6708 205.682 12.3329 205.247C11.9946 204.812 11.6466 204.512 11.2884 204.349C10.9298 204.186 10.3785 204.104 9.63484 204.104H8.45849V210.674C8.45849 211.694 8.50569 212.408 8.60052 212.816C8.69491 213.225 8.87751 213.551 9.14833 213.795C9.41871 214.04 9.91933 214.258 10.6493 214.449V215.795Z" fill="#A35429"></path><path d="M37.1485 204.778H44.4509L41.2055 193.291L37.1485 204.778ZM45.0389 207.164H36.3775L35.7084 209.103C35.5187 209.647 35.3634 210.174 35.2417 210.684C35.12 211.194 35.0591 211.735 35.0591 212.306C35.0591 213.639 35.7622 214.353 37.1688 214.448V215.795H28.5078V214.448C29.0076 214.394 29.4473 214.217 29.8257 213.918C30.2042 213.619 30.5495 213.211 30.8605 212.693C31.1715 212.177 31.5027 211.436 31.8547 210.47L40.3127 187.803H45.7287L52.422 210.653C52.7197 211.674 52.9698 212.398 53.1727 212.826C53.3756 213.255 53.6394 213.602 53.964 213.867C54.2882 214.132 54.7412 214.326 55.323 214.448V215.795H44.1263V214.448C44.8293 214.367 45.3498 214.17 45.6881 213.857C46.026 213.544 46.1949 213.102 46.1949 212.53C46.1949 212.109 46.1477 211.64 46.0529 211.123C45.9585 210.606 45.8028 209.953 45.5867 209.164L45.0389 207.164Z" fill="#A35429"></path><path d="M88.9345 189.292C88.2178 189.496 87.7308 189.718 87.4741 189.956C87.217 190.194 87.0379 190.513 86.9364 190.914C86.835 191.316 86.7843 192.026 86.7843 193.047V210.694C86.7843 211.524 86.8249 212.181 86.906 212.663C86.9872 213.146 87.1526 213.513 87.4031 213.765C87.6532 214.017 88.1635 214.244 88.9345 214.449V215.795H78.5291V214.449C79.1237 214.285 79.5361 214.142 79.7663 214.02C79.9961 213.898 80.1752 213.738 80.304 213.54C80.4324 213.344 80.5267 213.044 80.5876 212.643C80.6485 212.242 80.6789 211.579 80.6789 210.653V200.656C80.6789 199.555 80.6992 198.256 80.7398 196.759C80.7804 195.264 80.8209 194.203 80.8615 193.577H80.4354C80.2731 194.121 80.1011 194.655 79.9185 195.178C79.7359 195.702 79.3941 196.637 78.8939 197.984L73.4581 212.714H69.888L64.1682 196.168C63.8299 195.229 63.5321 194.298 63.2754 193.373H62.9102C63.0452 195.617 63.1131 198.269 63.1131 201.33V210.715C63.1131 211.722 63.1603 212.422 63.2551 212.816C63.3495 213.211 63.5392 213.537 63.8232 213.795C64.1068 214.054 64.6004 214.272 65.3039 214.449V215.795H57.6367V214.449C58.1365 214.312 58.5321 214.163 58.8232 213.999C59.1139 213.836 59.3335 213.619 59.4826 213.347C59.6308 213.075 59.7226 212.728 59.7561 212.306C59.7896 211.885 59.8068 211.347 59.8068 210.694V193.047C59.8068 192.013 59.7627 191.305 59.6749 190.924C59.5867 190.544 59.4147 190.231 59.158 189.986C58.9008 189.741 58.3936 189.51 57.6367 189.292V187.946H67.7175L73.3363 204.696L79.4214 187.946H88.9345V189.292Z" fill="#A35429"></path><path d="M112.969 187.946V194.434H110.191C109.744 193.142 109.366 192.268 109.055 191.813C108.744 191.357 108.372 190.996 107.939 190.731C107.506 190.466 106.769 190.333 105.728 190.333H101.306V200.126H103.984C104.579 200.126 105.045 200.041 105.383 199.871C105.721 199.701 106.002 199.419 106.225 199.024C106.448 198.63 106.661 198.018 106.864 197.188H109.156V205.472H106.864C106.674 204.683 106.465 204.081 106.235 203.666C106.005 203.251 105.731 202.955 105.414 202.778C105.096 202.602 104.619 202.513 103.984 202.513H101.306V213.408H105.708C106.181 213.408 106.58 213.377 106.905 213.316C107.229 213.255 107.52 213.15 107.777 213C108.034 212.85 108.28 212.646 108.517 212.388C108.754 212.13 108.963 211.851 109.146 211.551C109.329 211.253 109.521 210.858 109.724 210.368C109.927 209.879 110.15 209.205 110.394 208.348H113.172L112.787 215.795H92.8477V214.449C93.3483 214.313 93.7435 214.166 94.0346 214.01C94.3253 213.854 94.5418 213.636 94.6834 213.357C94.8254 213.078 94.9167 212.725 94.9573 212.296C94.9979 211.868 95.0182 211.327 95.0182 210.674V193.087C95.0182 192.448 95.0014 191.911 94.9679 191.475C94.9335 191.04 94.8457 190.687 94.7037 190.415C94.5621 190.143 94.3455 189.922 94.0549 189.751C93.7638 189.582 93.3615 189.429 92.8477 189.292V187.946H112.969Z" fill="#A35429"></path><path d="M119.38 208.919C119.718 210.538 120.283 211.745 121.074 212.541C121.865 213.337 123.024 213.734 124.553 213.734C125.351 213.734 126.067 213.599 126.703 213.326C127.338 213.054 127.849 212.616 128.234 212.01C128.62 211.405 128.812 210.647 128.812 209.735C128.812 208.892 128.657 208.161 128.346 207.542C128.035 206.923 127.534 206.335 126.845 205.778C126.155 205.22 125.195 204.628 123.964 204.002C122.91 203.472 121.956 202.921 121.104 202.35C120.253 201.778 119.525 201.15 118.924 200.462C118.322 199.776 117.856 199.024 117.524 198.208C117.193 197.392 117.028 196.474 117.028 195.454C117.028 193.781 117.44 192.359 118.265 191.19C119.089 190.02 120.283 189.132 121.845 188.527C123.406 187.922 125.215 187.619 127.271 187.619C128.474 187.619 129.624 187.684 130.719 187.813C131.814 187.943 133.065 188.17 134.472 188.497V194.413H131.693C131.436 193.339 131.108 192.485 130.709 191.853C130.31 191.22 129.813 190.755 129.218 190.455C128.623 190.156 127.872 190.007 126.966 190.007C126.196 190.007 125.506 190.143 124.898 190.415C124.289 190.687 123.809 191.091 123.458 191.628C123.106 192.166 122.93 192.815 122.93 193.577C122.93 194.366 123.082 195.049 123.387 195.627C123.691 196.205 124.201 196.77 124.918 197.321C125.634 197.871 126.676 198.501 128.042 199.208C129.705 200.078 131.013 200.932 131.966 201.768C132.92 202.605 133.623 203.516 134.076 204.502C134.529 205.489 134.755 206.635 134.755 207.94C134.755 209.613 134.37 211.065 133.599 212.296C132.829 213.527 131.706 214.472 130.233 215.132C128.758 215.792 127.054 216.121 125.121 216.121C123.741 216.121 122.304 216.043 120.81 215.887C119.316 215.731 117.913 215.503 116.602 215.203V208.919H119.38Z" fill="#A35429"></path><path d="M162.079 210.674C162.079 211.722 162.123 212.439 162.211 212.826C162.298 213.214 162.477 213.537 162.748 213.795C163.019 214.054 163.512 214.272 164.229 214.449V215.795H153.641V214.449C154.425 214.244 154.932 214.04 155.162 213.836C155.392 213.632 155.554 213.344 155.649 212.97C155.743 212.595 155.791 211.83 155.791 210.674V202.493H146.623V210.674C146.623 211.15 146.636 211.592 146.663 212C146.69 212.408 146.744 212.742 146.825 213C146.907 213.258 147.025 213.476 147.18 213.653C147.336 213.83 147.548 213.983 147.819 214.112C148.09 214.241 148.421 214.353 148.813 214.449V215.795H138.164V214.449C138.664 214.312 139.06 214.166 139.351 214.01C139.641 213.853 139.858 213.636 140 213.357C140.142 213.078 140.233 212.725 140.273 212.296C140.314 211.868 140.335 211.327 140.335 210.674V193.087C140.335 192.448 140.317 191.911 140.284 191.475C140.25 191.04 140.162 190.687 140.02 190.415C139.878 190.142 139.662 189.922 139.371 189.751C139.08 189.581 138.678 189.429 138.164 189.292V187.946H148.813V189.292C148.096 189.496 147.606 189.721 147.342 189.966C147.079 190.211 146.893 190.534 146.785 190.935C146.676 191.336 146.623 192.061 146.623 193.108V199.922H155.791V193.108C155.791 192.074 155.747 191.356 155.659 190.955C155.571 190.554 155.395 190.228 155.132 189.976C154.868 189.724 154.371 189.496 153.641 189.292V187.946H164.229V189.292C163.633 189.456 163.201 189.629 162.931 189.813C162.66 189.996 162.467 190.231 162.353 190.517C162.237 190.802 162.163 191.122 162.129 191.475C162.095 191.829 162.079 192.373 162.079 193.108V210.674Z" fill="#A35429"></path><path d="M199.115 194.943C199.305 194.317 199.467 193.688 199.602 193.056C199.737 192.423 199.805 191.882 199.805 191.433C199.805 190.727 199.633 190.206 199.288 189.872C198.943 189.539 198.426 189.346 197.736 189.291V187.945H206.195V189.291C205.694 189.4 205.275 189.594 204.937 189.872C204.599 190.152 204.294 190.543 204.024 191.046C203.754 191.549 203.416 192.392 203.01 193.576L195.403 215.937H190.576L185.992 196.779L180.556 215.937H175.485L169.379 193.086C169.082 191.971 168.818 191.196 168.588 190.761C168.358 190.325 168.102 189.998 167.818 189.781C167.533 189.563 167.175 189.4 166.742 189.291V187.945H177.655V189.291C176.952 189.373 176.431 189.57 176.093 189.883C175.755 190.196 175.586 190.638 175.586 191.209C175.586 191.93 175.782 193.052 176.175 194.575L179.683 208.755L185.505 187.945H190.089L194.836 208.755L199.115 194.943Z" fill="#A35429"></path><path d="M211.04 204.778H218.342L215.096 193.291L211.04 204.778ZM218.93 207.164H210.269L209.599 209.103C209.41 209.647 209.255 210.174 209.133 210.684C209.011 211.194 208.951 211.735 208.951 212.306C208.951 213.639 209.653 214.353 211.06 214.448V215.795H202.398V214.448C202.899 214.394 203.338 214.217 203.717 213.918C204.096 213.619 204.44 213.211 204.752 212.693C205.063 212.177 205.394 211.436 205.745 210.47L214.204 187.803H219.62L226.314 210.653C226.611 211.674 226.861 212.398 227.064 212.826C227.267 213.255 227.53 213.602 227.855 213.867C228.179 214.132 228.633 214.326 229.214 214.448V215.795H218.017V214.448C218.72 214.367 219.241 214.17 219.579 213.857C219.917 213.544 220.086 213.102 220.086 212.53C220.086 212.109 220.038 211.64 219.944 211.123C219.85 210.606 219.694 209.953 219.478 209.164L218.93 207.164Z" fill="#A35429"></path><path d="M240.048 190.374V201.717H242.057C243.138 201.717 244.03 201.572 244.734 201.279C245.437 200.987 245.994 200.578 246.407 200.055C246.82 199.531 247.103 198.915 247.259 198.208C247.414 197.501 247.492 196.726 247.492 195.882C247.492 194.033 247.06 192.645 246.194 191.72C245.329 190.795 244.044 190.333 242.34 190.333C241.177 190.333 240.413 190.346 240.048 190.374ZM242.239 215.795H231.59V214.449C232.09 214.312 232.486 214.166 232.777 214.01C233.067 213.853 233.284 213.636 233.425 213.357C233.568 213.078 233.659 212.725 233.699 212.296C233.74 211.868 233.76 211.327 233.76 210.674V193.087C233.76 192.448 233.743 191.911 233.71 191.475C233.676 191.04 233.588 190.687 233.446 190.415C233.304 190.143 233.087 189.922 232.797 189.751C232.506 189.581 232.103 189.429 231.59 189.292V187.946H243.416C245.011 187.946 246.367 188.058 247.482 188.282C248.598 188.507 249.575 188.85 250.413 189.313C251.116 189.694 251.711 190.173 252.198 190.751C252.685 191.33 253.06 192.003 253.324 192.771C253.588 193.539 253.719 194.434 253.719 195.454C253.719 196.787 253.487 197.929 253.019 198.882C252.553 199.834 251.925 200.626 251.133 201.258C250.342 201.891 249.284 202.486 247.959 203.044V203.247C248.959 203.683 249.788 204.265 250.444 204.992C251.099 205.72 251.691 206.642 252.218 207.757L253.496 210.531C254.064 211.769 254.629 212.697 255.19 213.316C255.751 213.935 256.417 214.312 257.188 214.449V215.795H249.379C248.595 214.707 247.708 213.089 246.722 210.939L245.14 207.45C244.666 206.417 244.26 205.682 243.922 205.247C243.584 204.812 243.236 204.512 242.878 204.349C242.52 204.186 241.968 204.104 241.225 204.104H240.048V210.674C240.048 211.694 240.095 212.408 240.19 212.816C240.285 213.225 240.467 213.551 240.738 213.795C241.008 214.04 241.509 214.258 242.239 214.449V215.795Z" fill="#A35429"></path><path d="M268.215 204.778H275.518L272.272 193.291L268.215 204.778ZM276.106 207.164H267.445L266.775 209.103C266.586 209.647 266.43 210.174 266.309 210.684C266.187 211.194 266.126 211.735 266.126 212.306C266.126 213.639 266.829 214.353 268.236 214.448V215.795H259.574V214.448C260.074 214.394 260.514 214.217 260.893 213.918C261.271 213.619 261.616 213.211 261.927 212.693C262.238 212.177 262.57 211.436 262.921 210.47L271.38 187.803H276.796L283.489 210.653C283.787 211.674 284.037 212.398 284.24 212.826C284.442 213.255 284.706 213.602 285.031 213.867C285.355 214.132 285.808 214.326 286.39 214.448V215.795H275.193V214.448C275.896 214.367 276.417 214.17 276.755 213.857C277.093 213.544 277.262 213.102 277.262 212.53C277.262 212.109 277.214 211.64 277.12 211.123C277.025 210.606 276.87 209.953 276.654 209.164L276.106 207.164Z" fill="#A35429"></path><path d="M320.001 189.292C319.285 189.496 318.798 189.718 318.541 189.956C318.284 190.194 318.105 190.513 318.004 190.914C317.902 191.316 317.851 192.026 317.851 193.047V210.694C317.851 211.524 317.892 212.181 317.973 212.663C318.054 213.146 318.219 213.513 318.47 213.765C318.72 214.017 319.231 214.244 320.001 214.449V215.795H309.596V214.449C310.191 214.285 310.603 214.142 310.833 214.02C311.063 213.898 311.242 213.738 311.371 213.54C311.499 213.344 311.594 213.044 311.654 212.643C311.715 212.242 311.746 211.579 311.746 210.653V200.656C311.746 199.555 311.766 198.256 311.807 196.759C311.847 195.264 311.888 194.203 311.928 193.577H311.502C311.34 194.121 311.168 194.655 310.985 195.178C310.803 195.702 310.461 196.637 309.961 197.984L304.525 212.714H300.954L295.235 196.168C294.897 195.229 294.599 194.298 294.342 193.373H293.977C294.112 195.617 294.18 198.269 294.18 201.33V210.715C294.18 211.722 294.227 212.422 294.322 212.816C294.416 213.211 294.606 213.537 294.89 213.795C295.174 214.054 295.667 214.272 296.371 214.449V215.795H288.703V214.449C289.204 214.312 289.599 214.163 289.89 213.999C290.181 213.836 290.4 213.619 290.549 213.347C290.698 213.075 290.789 212.728 290.823 212.306C290.856 211.885 290.874 211.347 290.874 210.694V193.047C290.874 192.013 290.83 191.305 290.742 190.924C290.654 190.544 290.481 190.231 290.224 189.986C289.968 189.741 289.46 189.51 288.703 189.292V187.946H298.784L304.403 204.696L310.488 187.946H320.001V189.292Z" fill="#A35429"></path><path d="M144.233 230.26V233.641H142.657C142.472 232.763 142.178 232.116 141.776 231.699C141.374 231.284 140.849 231.076 140.2 231.076C138.979 231.076 138.056 231.665 137.43 232.843C136.804 234.019 136.491 235.767 136.491 238.083C136.491 240.236 136.777 241.866 137.349 242.974C137.92 244.081 138.758 244.635 139.864 244.635C140.428 244.635 140.887 244.539 141.243 244.349C141.598 244.159 141.882 243.873 142.095 243.492C142.307 243.111 142.491 242.575 142.646 241.884H144.233V245.416C143.383 245.618 142.607 245.765 141.904 245.859C141.201 245.952 140.47 245.999 139.713 245.999C138.106 245.999 136.794 245.707 135.778 245.124C134.762 244.542 134.012 243.661 133.529 242.484C133.046 241.306 132.805 239.816 132.805 238.013C132.805 236.326 133.089 234.859 133.657 233.612C134.225 232.364 135.061 231.403 136.166 230.726C137.271 230.05 138.592 229.712 140.131 229.712C140.911 229.712 141.618 229.755 142.251 229.84C142.885 229.926 143.545 230.066 144.233 230.26Z" fill="#A35429"></path><path d="M150.067 239.517H154.239L152.385 232.953L150.067 239.517ZM154.575 240.881H149.626L149.244 241.988C149.136 242.299 149.047 242.6 148.977 242.892C148.908 243.184 148.873 243.492 148.873 243.819C148.873 244.581 149.275 244.989 150.078 245.043V245.812H145.129V245.043C145.415 245.012 145.666 244.911 145.883 244.74C146.099 244.569 146.296 244.336 146.474 244.04C146.651 243.745 146.841 243.322 147.041 242.769L151.875 229.817H154.97L158.795 242.874C158.965 243.458 159.107 243.871 159.223 244.116C159.339 244.361 159.49 244.559 159.676 244.711C159.861 244.863 160.12 244.973 160.452 245.043V245.812H154.054V245.043C154.456 244.996 154.753 244.884 154.946 244.704C155.14 244.526 155.236 244.273 155.236 243.947C155.236 243.706 155.209 243.438 155.155 243.143C155.101 242.848 155.012 242.474 154.889 242.024L154.575 240.881Z" fill="#A35429"></path><path d="M166.642 242.886C166.642 243.298 166.653 243.611 166.676 243.825C166.7 244.039 166.742 244.212 166.804 244.343C166.866 244.476 166.941 244.582 167.03 244.664C167.119 244.746 167.242 244.82 167.401 244.886C167.559 244.952 167.774 245.004 168.045 245.043V245.812H161.809V245.043C162.094 244.973 162.32 244.892 162.487 244.798C162.652 244.705 162.776 244.579 162.857 244.419C162.939 244.26 162.991 244.056 163.014 243.807C163.037 243.558 163.049 243.247 163.049 242.875V232.836C163.049 232.471 163.039 232.164 163.02 231.916C163 231.667 162.95 231.465 162.869 231.309C162.788 231.154 162.664 231.028 162.498 230.931C162.332 230.833 162.102 230.746 161.809 230.668V229.899H173.017V233.606H171.429C171.173 232.868 170.957 232.368 170.78 232.108C170.602 231.847 170.389 231.642 170.142 231.49C169.895 231.338 169.474 231.263 168.879 231.263H166.642V237.197H168.125C168.489 237.197 168.768 237.141 168.966 237.028C169.163 236.915 169.325 236.727 169.452 236.462C169.58 236.199 169.686 235.825 169.771 235.343H171.081V240.426H169.771C169.679 239.937 169.567 239.558 169.435 239.29C169.304 239.021 169.141 238.833 168.948 238.724C168.755 238.615 168.481 238.561 168.125 238.561H166.642V242.886Z" fill="#A35429"></path><path d="M186.392 229.899V233.606H184.805C184.55 232.868 184.333 232.368 184.155 232.108C183.978 231.847 183.765 231.642 183.518 231.49C183.271 231.338 182.849 231.263 182.255 231.263H179.727V236.858H181.257C181.598 236.858 181.864 236.81 182.058 236.713C182.25 236.616 182.411 236.455 182.538 236.229C182.666 236.004 182.787 235.654 182.904 235.18H184.213V239.913H182.904C182.795 239.463 182.675 239.119 182.544 238.882C182.413 238.645 182.257 238.475 182.075 238.375C181.893 238.273 181.621 238.223 181.257 238.223H179.727V244.449H182.243C182.513 244.449 182.742 244.431 182.927 244.396C183.112 244.361 183.278 244.301 183.424 244.215C183.572 244.13 183.713 244.013 183.848 243.865C183.983 243.718 184.104 243.558 184.208 243.388C184.312 243.217 184.422 242.991 184.538 242.711C184.654 242.431 184.782 242.047 184.92 241.557H186.508L186.288 245.812H174.895V245.043C175.18 244.965 175.406 244.882 175.572 244.792C175.739 244.703 175.862 244.579 175.943 244.419C176.025 244.26 176.077 244.058 176.1 243.813C176.123 243.568 176.134 243.259 176.134 242.886V232.836C176.134 232.471 176.125 232.164 176.106 231.916C176.086 231.667 176.036 231.465 175.955 231.309C175.874 231.154 175.75 231.028 175.584 230.931C175.418 230.833 175.188 230.746 174.895 230.668V229.899H186.392Z" fill="#A35429"></path><path d="M210.125 86.4828C209.142 83.8805 207.772 81.5758 205.89 79.8128C202.048 76.2127 197.716 74.3457 192.453 74.0428C192.222 72.3952 192.158 70.8833 192.159 69.7108C192.159 68.5835 192.222 67.1379 192.435 65.5624C197.709 65.2608 202.043 63.392 205.89 59.7875C207.791 58.0069 209.169 55.6737 210.154 53.0393C216.643 56.1061 223.275 65.0869 226.174 69.7644C223.269 74.4431 216.621 83.4283 210.125 86.4828ZM193.229 77.667C197.2 78.0779 200.449 79.6034 203.439 82.4042C204.857 83.733 205.92 85.4872 206.715 87.4934C206.463 87.5188 206.212 87.5333 205.963 87.5333H205.96C198.152 87.5298 194.711 82.6382 193.229 77.667ZM207.397 116.127C203.6 117.033 190.568 119.799 181.003 117.727C181.129 117.048 181.199 116.367 181.199 115.685C181.199 107.307 176.173 101.417 167.66 99.2592C167.65 98.6735 167.64 98.0585 167.635 97.6564L167.635 89.7691H176.32V94.9347C176.32 99.7298 180.24 103.631 185.058 103.631C189.876 103.631 193.796 99.7298 193.796 94.9057C193.796 90.1106 189.876 86.2093 185.058 86.2093H179.897V77.639H181.927H186.751H189.516C191.698 86.0978 197.589 91.0891 205.958 91.0927H205.962C206.567 91.0927 207.172 91.0378 207.775 90.9386C209.933 100.224 208.055 112.455 207.397 116.127ZM159.801 135.841C155.16 132.977 146.297 126.468 143.135 120.061C145.23 119.261 147.115 118.18 148.653 116.732C153.166 112.486 155.459 107.598 155.488 102.207C157.143 101.975 158.663 101.91 159.84 101.91C161.001 101.91 162.497 101.974 164.126 102.2C164.155 107.598 166.448 112.485 170.961 116.732C172.497 118.177 174.376 119.261 176.466 120.061C173.305 126.468 164.442 132.977 159.801 135.841ZM139.923 89.7691V94.9347C139.923 97.7666 137.608 100.071 134.762 100.071C131.916 100.071 129.6 97.7666 129.6 94.9057C129.6 92.0734 131.916 89.7691 134.762 89.7691H139.923ZM112.217 116.127C111.56 112.456 109.683 100.238 111.835 90.9544C112.574 91.1014 113.315 91.1804 114.056 91.1804H114.061C122.458 91.1769 128.361 86.1505 130.524 77.639H133.267H138.092H139.923V86.2093H134.762C129.944 86.2093 126.024 90.1106 126.024 94.9347C126.024 99.7298 129.944 103.631 134.762 103.631C139.58 103.631 143.5 99.7298 143.5 94.9347V89.7691H151.981V91.5922V96.418V97.1867C151.981 97.1942 151.981 97.2029 151.981 97.213V97.3553C151.979 97.7166 151.966 98.5217 151.954 99.2679C143.432 101.433 138.403 107.319 138.403 115.685C138.403 116.367 138.473 117.047 138.598 117.726C129.038 119.79 116.013 117.03 112.217 116.127ZM126.824 77.6315C125.363 82.6443 121.931 87.6176 114.059 87.6211H114.056C113.67 87.6211 113.28 87.5821 112.887 87.5224C113.683 85.5039 114.75 83.7396 116.175 82.4042C119.274 79.5003 122.647 77.9735 126.824 77.6315ZM93.8442 69.8522C96.6957 65.2502 103.161 56.481 109.549 53.2781C110.528 55.815 111.881 58.0605 113.724 59.7875C117.666 63.4816 122.118 65.3503 127.574 65.5782C127.795 67.1818 127.859 68.6537 127.859 69.7986C127.86 70.9444 127.798 72.4159 127.579 74.0204C122.122 74.246 117.668 76.117 113.724 79.8128C111.864 81.5552 110.504 83.8265 109.523 86.3915C103.146 83.1772 96.6935 74.4414 93.8442 69.8522ZM126.807 61.9662C122.641 61.6202 119.27 60.0952 116.175 57.1957C114.77 55.8787 113.712 54.1434 112.92 52.1587C113.297 52.103 113.673 52.0661 114.044 52.0661H114.052C121.899 52.0661 125.336 56.9898 126.807 61.9662ZM112.217 23.473C116.023 22.5669 129.106 19.7964 138.672 21.8904C138.499 22.6898 138.403 23.4932 138.403 24.2965C138.403 32.665 143.435 38.5514 151.961 40.7156C151.968 41.1928 151.975 41.6577 151.979 41.9764L151.98 49.9089H143.5V44.7433C143.5 39.9478 139.58 36.0469 134.762 36.0469C129.944 36.0469 126.024 39.9478 126.024 44.7723C126.024 49.5674 129.944 53.4687 134.762 53.4687H139.923V62.036H130.53C128.371 53.5292 122.461 48.5063 114.051 48.5063H114.042C113.312 48.5068 112.581 48.5831 111.855 48.7267C109.672 39.4333 111.558 27.1543 112.217 23.473ZM159.801 4.14165C164.365 6.95776 173.006 13.299 176.298 19.6024C174.275 20.3957 172.456 21.4615 170.96 22.8685C166.339 27.2171 164.039 32.2369 164.122 37.7818C163.39 37.8837 162.687 37.9517 162.027 37.9965H157.644C156.967 37.9508 156.244 37.881 155.491 37.7757C155.571 32.2286 153.271 27.2132 148.653 22.8685C147.156 21.4593 145.333 20.3921 143.305 19.5984C146.599 13.2963 155.238 6.95732 159.801 4.14165ZM179.897 49.9089V44.7433C179.897 41.9109 182.212 39.6063 185.058 39.6063C187.904 39.6063 190.219 41.9109 190.219 44.7723C190.219 47.6046 187.904 49.9089 185.058 49.9089H179.897ZM206.75 52.0217C205.951 54.0639 204.877 55.848 203.439 57.1957C200.438 60.0074 197.192 61.5346 193.194 61.9381C194.655 56.9415 198.087 51.9783 205.967 51.9783H205.974C206.231 51.9783 206.49 51.9945 206.75 52.0217ZM180.096 72.2565V67.4307C180.096 66.4254 180.917 65.6076 181.927 65.6076H186.751C187.761 65.6076 188.583 66.4254 188.583 67.4307V72.2565C188.583 73.2614 187.761 74.0796 186.751 74.0796H181.927C180.917 74.0796 180.096 73.2614 180.096 72.2565ZM179.897 89.7691H185.058C187.904 89.7691 190.219 92.0733 190.219 94.9347C190.219 97.7666 187.904 100.071 185.058 100.071C182.212 100.071 179.897 97.7666 179.897 94.9347V89.7691ZM155.557 91.5922C155.557 90.5869 156.379 89.7691 157.389 89.7691H162.213C163.223 89.7691 164.044 90.5869 164.044 91.5922V96.418C164.044 97.4229 163.223 98.2407 162.213 98.2407H157.389C156.379 98.2407 155.557 97.4229 155.557 96.418V91.5922ZM131.436 72.2565V67.4307C131.436 66.4254 132.257 65.6076 133.267 65.6076H138.092C139.101 65.6076 139.923 66.4254 139.923 67.4307V72.2565C139.923 73.2614 139.101 74.0796 138.092 74.0796H133.267C132.257 74.0796 131.436 73.2614 131.436 72.2565ZM139.923 49.9089H134.762C131.916 49.9089 129.6 47.6046 129.6 44.7433C129.6 41.9109 131.916 39.6063 134.762 39.6063C137.608 39.6063 139.923 41.9109 139.923 44.7433V49.9089ZM144.057 78.1657C144.381 77.8426 144.807 77.6618 145.263 77.6394C145.295 77.6403 145.326 77.6442 145.358 77.6442H150.16C150.191 77.6442 150.221 77.6398 150.251 77.6394C151.163 77.6837 151.895 78.3892 151.981 79.2852V79.4502V84.276V84.46C151.937 84.8748 151.763 85.2616 151.462 85.5605C151.116 85.9056 150.655 86.0956 150.164 86.0956H145.356C144.344 86.0956 143.521 85.2765 143.52 84.2699L143.519 79.4577C143.519 78.97 143.71 78.5108 144.057 78.1657ZM162.075 74.0678H157.527C156.517 74.0107 155.705 73.2416 155.583 72.2552C155.583 72.2526 155.583 72.2499 155.583 72.2473L155.585 67.4421C155.585 67.436 155.584 67.4298 155.584 67.4237C155.714 66.4026 156.583 65.6076 157.644 65.6076H161.958C163.109 65.6076 164.044 66.5391 164.044 67.684V72.0028C164.044 73.1077 163.17 74.0059 162.075 74.0678ZM176.108 72.2565C176.108 73.235 175.327 74.03 174.354 74.0717C174.328 74.0713 174.303 74.0678 174.276 74.0678H169.453C169.426 74.0678 169.401 74.0713 169.375 74.0717C168.444 74.0318 167.696 73.3 167.633 72.3794V67.3078C167.698 66.3604 168.485 65.6076 169.453 65.6076H174.276C175.286 65.6076 176.108 66.4254 176.108 67.4307V72.2565ZM155.577 60.4042C155.579 60.341 155.586 60.2791 155.586 60.2155L155.588 55.4112C155.588 55.3383 155.58 55.2667 155.577 55.1943C155.67 54.3326 156.362 53.6543 157.233 53.5797C157.285 53.5815 157.336 53.5876 157.389 53.5876H162.213C162.265 53.5876 162.317 53.5815 162.369 53.5797C163.305 53.66 164.044 54.4353 164.044 55.387V60.2128C164.044 61.2181 163.223 62.036 162.213 62.036H157.389C156.445 62.036 155.674 61.3187 155.577 60.4042ZM150.163 74.0643H145.354C145.332 74.0643 145.31 74.0673 145.288 74.0673C144.824 74.0498 144.389 73.8672 144.059 73.5384C143.712 73.1933 143.521 72.7337 143.521 72.2455L143.522 67.4404C143.522 66.4324 144.346 65.6124 145.359 65.6124H145.361H150.161C150.652 65.6124 151.113 65.8029 151.46 66.1484C151.765 66.4522 151.941 66.8455 151.981 67.2678V67.684V72.0028V72.4005C151.902 73.3127 151.155 74.0331 150.227 74.0673C150.206 74.0673 150.185 74.0643 150.163 74.0643ZM164.044 79.4502V84.276C164.044 85.2813 163.223 86.0991 162.213 86.0991H157.389C156.437 86.0991 155.661 85.3696 155.574 84.4442C155.576 84.3853 155.583 84.327 155.583 84.2681L155.581 79.4559C155.581 79.4006 155.575 79.3475 155.573 79.2926C155.652 78.4015 156.371 77.6969 157.272 77.639H157.644H161.958H162.33C163.284 77.7004 164.044 78.4849 164.044 79.4502ZM176.108 60.2128C176.108 61.2181 175.286 62.036 174.276 62.036H169.453C168.485 62.036 167.698 61.2831 167.633 60.3358V55.2641C167.698 54.3172 168.485 53.5639 169.453 53.5639H174.276C175.286 53.5639 176.108 54.3822 176.108 55.387V60.2128ZM144.062 61.507C143.715 61.1615 143.524 60.7023 143.524 60.2137L143.525 55.409C143.526 54.4011 144.349 53.581 145.362 53.581H150.164C150.655 53.581 151.116 53.7716 151.463 54.1166C151.76 54.412 151.934 54.7926 151.98 55.2018L151.981 60.3998C151.888 61.298 151.147 62.003 150.229 62.036H145.292C144.828 62.0188 144.392 61.8362 144.062 61.507ZM176.108 79.4502V84.276C176.108 85.2813 175.286 86.0991 174.276 86.0991H169.453C168.487 86.0991 167.702 85.3489 167.634 84.4047L167.634 79.326C167.696 78.419 168.423 77.6978 169.335 77.639H169.453H174.276H174.394C175.348 77.7004 176.108 78.4849 176.108 79.4502ZM177.622 24.2965C177.622 32.1246 172.693 35.5539 167.707 37.0219C167.842 32.7857 169.76 28.8971 173.418 25.455C174.548 24.3918 175.938 23.5722 177.496 22.9392C177.577 23.3957 177.622 23.8487 177.622 24.2965ZM159.84 41.6313C160.648 41.6313 161.436 41.6054 162.206 41.5563H162.213C163.223 41.5563 164.044 42.3741 164.044 43.3794V48.2052C164.044 48.9875 163.544 49.6512 162.846 49.9089H156.755C156.058 49.6512 155.557 48.9875 155.557 48.2052V43.3794C155.557 42.3741 156.379 41.5563 157.389 41.5563H157.466C158.238 41.6054 159.029 41.6313 159.84 41.6313ZM142.106 22.9343C143.669 23.5678 145.064 24.3891 146.196 25.455C149.852 28.8954 151.77 32.7809 151.908 37.0132C146.91 35.5403 141.98 32.1083 141.98 24.2965C141.98 23.8474 142.025 23.3926 142.106 22.9343ZM141.98 115.685C141.98 107.885 146.897 104.451 151.887 102.975C151.647 107.057 149.74 110.811 146.196 114.145C145.051 115.223 143.639 116.05 142.055 116.687C142.01 116.351 141.98 116.016 141.98 115.685ZM177.547 116.684C175.969 116.047 174.56 115.22 173.418 114.145C169.872 110.809 167.965 107.052 167.727 102.966C172.706 104.437 177.622 107.868 177.622 115.685C177.622 116.015 177.592 116.349 177.547 116.684ZM207.397 23.473C208.053 27.1341 209.922 39.3003 207.796 48.5748C207.19 48.4747 206.583 48.419 205.976 48.4185H205.967C197.53 48.4185 191.609 53.477 189.467 62.036H179.897V53.4687H185.058C189.876 53.4687 193.796 49.5674 193.796 44.7433C193.796 39.9478 189.876 36.0469 185.058 36.0469C180.24 36.0469 176.32 39.9478 176.32 44.7433V49.9089H167.633V42.4808H167.636L167.635 42.0431C167.638 41.7174 167.646 41.2274 167.654 40.7244C176.17 38.5676 181.199 32.6768 181.199 24.2965C181.199 23.4936 181.103 22.6916 180.93 21.8931C190.498 19.7938 203.589 22.5665 207.397 23.473ZM229.806 68.8693C229.39 68.159 220.923 53.8699 211.189 49.6095C214.005 37.7845 210.872 22.5133 210.692 21.6578L210.468 20.591L209.411 20.3052C208.525 20.0655 191.98 15.6849 179.751 18.5427C175.196 9.07106 161.403 0.933533 160.705 0.526581L159.801 -0.000213623L158.897 0.526581C158.199 0.933533 144.408 9.06931 139.852 18.5401C127.624 15.6875 111.089 20.066 110.203 20.3052L109.146 20.591L108.921 21.6578C108.74 22.5191 105.565 37.9952 108.483 49.8527C98.8954 54.2944 90.6235 68.2551 90.2124 68.9566L89.6875 69.8539L90.2133 70.7503C90.6243 71.451 98.8879 85.3704 108.464 89.8222C105.578 101.67 108.741 117.083 108.921 117.942L109.146 119.009L110.203 119.295C110.873 119.476 120.485 122.022 130.419 122.022C133.568 122.022 136.747 121.761 139.686 121.093C144.065 130.712 158.19 139.043 158.897 139.456L159.801 139.982L160.705 139.456C161.412 139.043 175.535 130.713 179.915 121.094C192.127 123.876 208.529 119.533 209.411 119.295L210.468 119.009L210.692 117.942C210.873 117.085 214.021 101.743 211.17 89.9074C220.908 85.6562 229.388 71.3724 229.805 70.663L230.331 69.7661L229.806 68.8693Z" fill="#A35429"></path></g></svg>